<!-- Generated by scripts/build-brand.mjs; do not edit by hand. -->
<svg xmlns="http://www.w3.org/2000/svg" width="1200" height="360" viewBox="0 0 1200 360" role="img" aria-labelledby="title description">
  <title id="title">Everything Skills — an atlas of Agent Skills</title>
  <desc id="description">A book-inspired E sits at the center of eleven connected domains. Slow pulses trace the shared knowledge map.</desc>
  <style>
  .sans { font-family: 'Segoe UI', Arial, sans-serif; }
  .serif { font-family: Georgia, 'Times New Roman', serif; }
  .mono { font-family: 'Courier New', monospace; }
  .travel { stroke-dasharray: 14 100; animation: travel 12s linear infinite; }
  .breathe { transform-box: fill-box; transform-origin: center; animation: breathe 8s ease-in-out infinite; }
  @keyframes travel { to { stroke-dashoffset: -228; } }
  @keyframes breathe { 0%, 100% { opacity: .65; } 50% { opacity: 1; } }
  @media (prefers-reduced-motion: reduce) { .travel, .breathe { animation: none; } }
</style>
  <defs>
    <pattern id="grid" width="32" height="32" patternUnits="userSpaceOnUse"><path d="M32 0H0V32" fill="none" stroke="#f3eddc" stroke-opacity=".032"/></pattern>
  </defs>
  <rect width="1200" height="360" rx="20" fill="#111d1a"/>
  <rect x="1" y="1" width="1198" height="358" rx="19" fill="url(#grid)" stroke="#30473c"/>
  <path d="M44 44H69 M44 44V69 M1156 316H1131 M1156 316V291" stroke="#deb46c" stroke-opacity=".6" fill="none"/>
  <text x="66" y="72" class="mono" font-size="12" letter-spacing="3.5" fill="#deb46c">AN ATLAS OF AGENT SKILLS</text>
  <text x="62" y="155" class="sans" font-size="70" font-weight="700" letter-spacing="-3" fill="#f3eddc">EVERYTHING</text>
  <text x="62" y="233" class="serif" font-size="78" font-style="italic" letter-spacing="1" fill="#deb46c">Skills.</text>
  <path d="M66 259H649" stroke="#385348"/>
  <text x="66" y="290" class="sans" font-size="15" fill="#b6c8bc" letter-spacing=".4">Curated by domain. Connected by knowledge.</text>
  <text x="66" y="316" class="mono" font-size="10" fill="#819b8e" letter-spacing="1.5">OPEN SOURCE  /  NATIVE LANGUAGES  /  ONE SHARED MAP</text>
  <path d="M755 52V308" stroke="#2b4338"/>
  <g><path d="M982 176 L982.00 56.00" stroke="#385348" stroke-width="1"/>
<path d="M982 176 L1046.88 75.05" stroke="#385348" stroke-width="1"/>
<path d="M982 176 L1091.16 126.15" stroke="#385348" stroke-width="1"/>
<path d="M982 176 L1100.78 193.08" stroke="#385348" stroke-width="1"/>
<path d="M982 176 L1072.69 254.58" stroke="#385348" stroke-width="1"/>
<path d="M982 176 L1015.81 291.14" stroke="#385348" stroke-width="1"/>
<path d="M982 176 L948.19 291.14" stroke="#385348" stroke-width="1"/>
<path d="M982 176 L891.31 254.58" stroke="#385348" stroke-width="1"/>
<path d="M982 176 L863.22 193.08" stroke="#385348" stroke-width="1"/>
<path d="M982 176 L872.84 126.15" stroke="#385348" stroke-width="1"/>
<path d="M982 176 L917.12 75.05" stroke="#385348" stroke-width="1"/><path d="M982.00 56.00 Q982 176 1100.78 193.08" fill="none" stroke="#deb46c" stroke-opacity=".22"/>
<path d="M1091.16 126.15 Q982 176 1015.81 291.14" fill="none" stroke="#deb46c" stroke-opacity=".22"/>
<path d="M1072.69 254.58 Q982 176 891.31 254.58" fill="none" stroke="#deb46c" stroke-opacity=".22"/>
<path d="M948.19 291.14 Q982 176 872.84 126.15" fill="none" stroke="#deb46c" stroke-opacity=".22"/>
<path d="M863.22 193.08 Q982 176 982.00 56.00" fill="none" stroke="#deb46c" stroke-opacity=".22"/>
<path d="M917.12 75.05 Q982 176 1091.16 126.15" fill="none" stroke="#deb46c" stroke-opacity=".22"/></g>
  <circle cx="982" cy="176" r="120" fill="none" stroke="#476451" stroke-opacity=".8"/>
  <circle cx="982" cy="176" r="91" fill="none" stroke="#30473c" stroke-dasharray="2 8"/>
  <circle cx="982" cy="176" r="120" fill="none" stroke="#deb46c" stroke-width="2" pathLength="114" class="travel"/>
  <g><circle cx="982.00" cy="56.00" r="6" fill="#deb46c" class="breathe" style="animation-delay: -0s"/><text x="982.00" y="33.00" fill="#a8b9ae" text-anchor="middle" dominant-baseline="middle" class="mono" font-size="9.5" letter-spacing="1">META</text></g>
<g><circle cx="1046.88" cy="75.05" r="4" fill="#90b8a7" class="breathe" style="animation-delay: -1s"/><text x="1060.39" y="55.70" fill="#a8b9ae" text-anchor="middle" dominant-baseline="middle" class="mono" font-size="9.5" letter-spacing="1">DOCS</text></g>
<g><circle cx="1091.16" cy="126.15" r="4" fill="#90b8a7" class="breathe" style="animation-delay: -2s"/><text x="1113.90" y="116.60" fill="#a8b9ae" text-anchor="middle" dominant-baseline="middle" class="mono" font-size="9.5" letter-spacing="1">CODE</text></g>
<g><circle cx="1100.78" cy="193.08" r="6" fill="#deb46c" class="breathe" style="animation-delay: -3s"/><text x="1125.52" y="196.35" fill="#a8b9ae" text-anchor="middle" dominant-baseline="middle" class="mono" font-size="9.5" letter-spacing="1">DATA</text></g>
<g><circle cx="1072.69" cy="254.58" r="4" fill="#90b8a7" class="breathe" style="animation-delay: -4s"/><text x="1091.58" y="269.65" fill="#a8b9ae" text-anchor="middle" dominant-baseline="middle" class="mono" font-size="9.5" letter-spacing="1">AI</text></g>
<g><circle cx="1015.81" cy="291.14" r="4" fill="#90b8a7" class="breathe" style="animation-delay: -5s"/><text x="1022.85" y="313.21" fill="#a8b9ae" text-anchor="middle" dominant-baseline="middle" class="mono" font-size="9.5" letter-spacing="1">BIZ</text></g>
<g><circle cx="948.19" cy="291.14" r="6" fill="#deb46c" class="breathe" style="animation-delay: -6s"/><text x="941.15" y="313.21" fill="#a8b9ae" text-anchor="middle" dominant-baseline="middle" class="mono" font-size="9.5" letter-spacing="1">ART</text></g>
<g><circle cx="891.31" cy="254.58" r="4" fill="#90b8a7" class="breathe" style="animation-delay: -7s"/><text x="872.42" y="269.65" fill="#a8b9ae" text-anchor="middle" dominant-baseline="middle" class="mono" font-size="9.5" letter-spacing="1">WORK</text></g>
<g><circle cx="863.22" cy="193.08" r="4" fill="#90b8a7" class="breathe" style="animation-delay: -8s"/><text x="838.48" y="196.35" fill="#a8b9ae" text-anchor="middle" dominant-baseline="middle" class="mono" font-size="9.5" letter-spacing="1">SAFE</text></g>
<g><circle cx="872.84" cy="126.15" r="6" fill="#deb46c" class="breathe" style="animation-delay: -9s"/><text x="850.10" y="116.60" fill="#a8b9ae" text-anchor="middle" dominant-baseline="middle" class="mono" font-size="9.5" letter-spacing="1">FIELD</text></g>
<g><circle cx="917.12" cy="75.05" r="4" fill="#90b8a7" class="breathe" style="animation-delay: -10s"/><text x="903.61" y="55.70" fill="#a8b9ae" text-anchor="middle" dominant-baseline="middle" class="mono" font-size="9.5" letter-spacing="1">PLATFORM</text></g>
  <svg xmlns="http://www.w3.org/2000/svg" x="926" y="120" viewBox="0 0 192 192" width="112" height="112" role="img" aria-labelledby="logo-title logo-desc">
  <title id="logo-title">Everything Skills — 开卷互见</title>
  <desc id="logo-desc">深墨绿底上的一册展开的书，左页刻出字母 E，右页以玉色节点连接技能，金线延伸至书外。关系线缓慢描绘，节点轻微呼吸；系统减少动态效果时显示完整静态图形。</desc>
  <defs>
    <radialGradient id="page-glow" cx="50%" cy="45%" r="65%">
      <stop offset="0" stop-color="#90b8a7" stop-opacity=".12"/>
      <stop offset="1" stop-color="#90b8a7" stop-opacity="0"/>
    </radialGradient>
    <linearGradient id="folio-shade" x1="101" y1="55" x2="150" y2="134" gradientUnits="userSpaceOnUse">
      <stop stop-color="#90b8a7" stop-opacity=".15"/>
      <stop offset="1" stop-color="#90b8a7" stop-opacity=".035"/>
    </linearGradient>
    <style>
      .network-trace { stroke-dasharray: 1; stroke-dashoffset: 0; }
      @media (prefers-reduced-motion: no-preference) {
        .network-trace { animation: trace 10.8s ease-in-out infinite; }
        .network-trace.secondary { animation-delay: -3.6s; }
        .node-halo { transform-box: fill-box; transform-origin: center; animation: logo-breathe 10.8s ease-in-out infinite; }
        .node-halo.secondary { animation-delay: -3.6s; }
      }
      @keyframes trace {
        0%, 8% { stroke-dashoffset: 1; }
        38%, 76% { stroke-dashoffset: 0; }
        100% { stroke-dashoffset: -1; }
      }
      @keyframes logo-breathe {
        0%, 100% { transform: scale(1); opacity: .24; }
        42%, 58% { transform: scale(1.22); opacity: .48; }
      }
      @media (prefers-reduced-motion: reduce) {
        .network-trace { animation: none; stroke-dashoffset: 0; }
        .node-halo { animation: none; transform: none; opacity: .3; }
      }
    </style>
  </defs>
  <rect width="192" height="192" rx="38" fill="#111d1a"/>
  <rect x="8" y="8" width="176" height="176" rx="31" fill="url(#page-glow)" stroke="#90b8a7" stroke-opacity=".2"/>
  <path d="M42 58C61 52 80 53 95 63V137C80 127 61 124 42 130Z" fill="#f3eddc"/>
  <path d="M101 63C116 53 134 52 151 58V130C134 124 116 127 101 137Z" fill="url(#folio-shade)" stroke="#deb46c" stroke-width="2" stroke-linejoin="round"/>
  <path d="M98 66V136" fill="none" stroke="#deb46c" stroke-width="2" stroke-linecap="round"/>
  <path d="M59 74V115M59 74L79 75M59 94L77 95M59 115L82 119" fill="none" stroke="#111d1a" stroke-width="5.5" stroke-linecap="round" stroke-linejoin="round"/>
  <g fill="none" stroke-width="1.8" stroke-linecap="round" stroke-linejoin="round">
    <path d="M115 75Q126 71 135 84Q126 92 118 102L139 112M115 75Q111 89 118 102L114 122M135 84L139 112" stroke="#90b8a7" stroke-opacity=".3"/>
    <path d="M135 84C151 76 158 58 153 39" stroke="#deb46c" stroke-opacity=".28"/>
    <path class="network-trace" pathLength="1" d="M115 75Q126 71 135 84Q126 92 118 102L139 112" stroke="#90b8a7"/>
    <path class="network-trace secondary" pathLength="1" d="M115 75Q111 89 118 102L114 122M135 84L139 112" stroke="#90b8a7"/>
    <path class="network-trace secondary" pathLength="1" d="M135 84C151 76 158 58 153 39" stroke="#deb46c"/>
  </g>
  <g fill="none" stroke="#90b8a7" stroke-width="1">
    <circle class="node-halo" cx="118" cy="102" r="7" opacity=".3"/>
    <circle class="node-halo secondary" cx="153" cy="39" r="8" opacity=".3" stroke="#deb46c"/>
  </g>
  <g stroke="#111d1a" stroke-width="1.5">
    <circle cx="115" cy="75" r="3.6" fill="#90b8a7"/>
    <circle cx="135" cy="84" r="3.6" fill="#90b8a7"/>
    <circle cx="118" cy="102" r="4.2" fill="#deb46c"/>
    <circle cx="139" cy="112" r="3.6" fill="#90b8a7"/>
    <circle cx="114" cy="122" r="3.2" fill="#90b8a7"/>
    <circle cx="153" cy="39" r="4.8" fill="#deb46c"/>
  </g>
  <path d="M72 150H92M104 150H123" fill="none" stroke="#deb46c" stroke-opacity=".45" stroke-width="1.3" stroke-linecap="round"/>
  <path d="M98 147L101 150L98 153L95 150Z" fill="#deb46c"/>
  <rect x="142" y="145" width="13" height="13" rx="2" fill="#e88f76"/>
  <path d="M146 148V155M151 148V155M146 151H151" fill="none" stroke="#111d1a" stroke-width="1.25" stroke-linecap="round"/>
</svg>

  <text x="982" y="337" class="mono" font-size="10" letter-spacing="2" text-anchor="middle" fill="#deb46c">11 VOLUMES. ONE LIVING LIBRARY.</text>
</svg>
